<svg viewBox="0 0 48 16" fill="none" xmlns="http://www.w3.org/2000/svg"><path d="M44.688.814h-3.004c-.933 0-1.627.254-2.037 1.184l-5.773 13.074h4.083s.666-1.758.817-2.143l4.979.006c.116.498.474 2.137.474 2.137h3.607L44.688.814Zm-4.795 9.196c.32-.819 1.549-3.987 1.549-3.987-.021.04.317-.825.518-1.362l.262 1.23.901 4.12h-3.23Zm-5.747.394c-.028 2.963-2.684 4.875-6.771 4.875-1.743-.018-3.422-.36-4.332-.76l.547-3.193.501.228c1.277.532 2.104.747 3.661.747 1.117 0 2.313-.438 2.325-1.393.007-.625-.501-1.07-2.016-1.77-1.476-.683-3.43-1.827-3.405-3.876.021-2.773 2.729-4.708 6.571-4.708 1.506 0 2.713.31 3.483.6l-.526 3.091-.351-.165a7.178 7.178 0 0 0-2.91-.546c-1.522 0-2.228.634-2.228 1.227-.008.668.824 1.108 2.184 1.77 2.247 1.015 3.284 2.252 3.267 3.873ZM0 .962.05.676h6.028c.813.031 1.468.29 1.694 1.16l1.311 6.303C7.795 4.842 4.691 2.1 0 .962Zm17.581-.15-6.123 14.24-4.114.006L3.862 3.161c2.503 1.602 4.635 4.144 5.386 5.914l.406 1.47 3.808-9.73 4.119-.003ZM19.153.8h3.89L20.61 15.066h-3.888L19.153.8Z" fill="#FFF"/></svg>